<?xml version="1.0" standalone="no"?>
<!DOCTYPE svg PUBLIC "-//W3C//DTD SVG 20010904//EN"
 "http://www.w3.org/TR/2001/REC-SVG-20010904/DTD/svg10.dtd">
<svg version="1.0" xmlns="http://www.w3.org/2000/svg"
 width="260.000000pt" height="260.000000pt" viewBox="0 0 260.000000 260.000000"
 preserveAspectRatio="xMidYMid meet">
<metadata>
Created by potrace 1.11, written by Peter Selinger 2001-2013
</metadata>
<g transform="translate(0.000000,260.000000) scale(0.100000,-0.100000)"
fill="#000000" stroke="none">
<path d="M1076 2588 c3 -4 -9 -6 -26 -4 -19 2 -33 -1 -36 -9 -3 -7 -17 -11
-35 -9 -16 2 -29 -1 -29 -7 0 -6 -6 -9 -14 -6 -7 3 -23 -1 -34 -9 -12 -8 -25
-14 -29 -13 -7 1 -11 0 -30 -6 -5 -2 -18 -6 -30 -10 -13 -4 -23 -11 -23 -16 0
-5 -3 -8 -7 -7 -5 1 -18 -3 -30 -10 -13 -7 -23 -9 -23 -5 0 4 -6 -2 -14 -13
-8 -10 -18 -16 -22 -12 -4 5 -13 -1 -21 -12 -8 -11 -21 -20 -29 -20 -8 0 -14
-5 -14 -12 0 -6 -3 -8 -6 -5 -4 4 -15 -3 -25 -15 -11 -11 -19 -18 -19 -15 0 7
-6 2 -64 -50 -13 -12 -27 -19 -32 -15 -4 4 -4 2 -1 -4 6 -11 -42 -61 -55 -57
-4 2 -10 -7 -14 -20 -4 -12 -16 -30 -27 -39 -11 -10 -16 -18 -11 -18 5 0 -2
-7 -14 -16 -12 -8 -22 -22 -22 -30 0 -8 -8 -14 -17 -14 -13 0 -14 -3 -6 -8 9
-6 6 -15 -13 -35 -13 -14 -25 -30 -25 -34 -3 -20 -12 -32 -19 -28 -5 3 -7 -6
-6 -19 2 -14 -3 -27 -10 -30 -8 -3 -14 -16 -14 -30 0 -13 -7 -26 -15 -30 -8
-3 -12 -12 -9 -21 3 -8 2 -15 -3 -15 -5 0 -10 -6 -11 -12 -2 -24 -8 -47 -14
-54 -4 -3 -4 -13 -1 -22 5 -11 3 -13 -6 -7 -10 6 -11 3 -1 -15 8 -15 8 -20 1
-16 -6 4 -11 6 -11 4 -7 -57 -14 -84 -24 -90 -8 -6 -7 -10 2 -17 11 -6 11 -11
-2 -24 -10 -10 -12 -18 -6 -22 6 -4 7 -12 3 -18 -12 -18 -15 -61 -19 -275 -3
-107 -1 -191 3 -189 5 3 8 -11 8 -31 -1 -20 3 -43 9 -51 8 -11 8 -13 -1 -7 -9
5 -11 2 -7 -8 3 -9 11 -16 16 -16 7 0 7 -4 0 -13 -7 -8 -6 -17 3 -30 7 -10 11
-27 8 -37 -3 -12 0 -20 7 -20 7 0 10 -7 7 -15 -4 -8 -2 -17 4 -21 5 -3 7 -15
3 -26 -4 -15 -3 -18 6 -13 8 5 11 3 8 -6 -3 -8 2 -20 11 -27 9 -8 11 -11 4 -8
-8 5 -8 0 0 -19 7 -14 16 -25 20 -25 5 0 6 -4 3 -9 -8 -12 23 -71 37 -71 7 0
6 -4 -3 -10 -13 -8 -13 -10 2 -10 11 0 15 -5 12 -15 -4 -8 -1 -15 5 -15 6 0
11 -7 11 -15 0 -8 5 -15 11 -15 5 0 8 -4 5 -9 -3 -5 1 -12 9 -15 8 -3 14 -11
13 -18 -2 -7 3 -12 11 -10 8 2 11 -3 8 -12 -3 -8 1 -17 9 -20 8 -3 14 -13 14
-21 0 -9 4 -13 10 -10 6 3 10 0 10 -7 1 -17 35 -58 48 -58 6 0 14 -9 17 -20 3
-11 12 -20 20 -20 8 0 17 -9 20 -20 3 -11 13 -20 21 -20 8 0 14 -7 14 -16 0
-8 4 -12 10 -9 5 3 10 -2 10 -11 0 -10 3 -15 6 -11 3 3 11 1 18 -4 47 -40 60
-49 68 -49 5 0 6 -5 2 -12 -4 -6 -3 -8 4 -4 6 3 13 2 17 -4 4 -6 11 -8 16 -5
5 4 9 2 9 -3 0 -5 14 -15 30 -22 17 -7 30 -17 30 -23 0 -6 3 -8 6 -4 4 3 28
-5 55 -19 27 -13 49 -22 49 -19 0 4 12 -1 28 -9 15 -8 41 -18 57 -22 17 -4 37
-9 45 -11 8 -3 23 -4 33 -4 9 0 17 -5 17 -10 0 -7 6 -7 17 0 13 7 23 5 37 -7
11 -9 16 -11 12 -5 -5 9 -2 11 8 7 9 -3 16 -11 16 -18 0 -7 3 -7 8 -1 8 11
132 16 132 6 0 -4 14 -8 31 -9 21 -2 28 1 23 9 -5 8 -3 9 7 3 18 -11 40 -14
34 -5 -2 5 29 7 70 6 41 -1 75 2 75 6 0 4 8 6 18 4 9 -1 23 2 30 8 8 6 12 6
12 -2 0 -8 6 -8 18 -2 19 11 73 25 85 23 4 -1 7 2 7 8 0 5 5 10 11 10 5 0 7
-5 3 -11 -3 -6 5 -4 18 5 14 9 28 13 31 9 4 -3 7 -1 7 6 0 8 8 11 19 8 12 -3
22 1 25 9 3 8 9 14 13 13 17 -3 52 14 57 27 3 7 11 11 18 9 8 -3 23 4 35 15
12 11 27 20 33 20 5 0 10 5 10 11 0 5 5 7 10 4 6 -3 10 -1 10 5 0 6 4 9 9 5 6
-3 15 4 21 15 6 11 15 18 19 15 5 -3 12 2 15 11 4 9 9 14 12 11 8 -8 54 34 48
45 -3 4 9 16 25 26 17 9 34 25 37 35 4 12 11 16 22 12 9 -3 13 -3 10 1 -7 6 0
17 34 54 9 10 14 21 10 24 -3 3 -1 6 5 6 6 0 30 30 54 67 24 38 47 70 51 71 5
2 8 8 8 13 0 6 -5 7 -12 3 -6 -4 -3 4 8 18 10 14 24 23 29 20 6 -3 7 -2 3 3
-4 4 -1 22 7 40 7 19 11 36 7 39 -3 3 0 6 7 6 8 0 11 8 8 20 -3 12 1 24 11 30
10 5 13 10 7 10 -5 0 -3 5 5 10 12 8 12 10 1 10 -11 0 -10 4 4 20 9 10 15 26
12 35 -4 8 -2 15 4 15 6 0 9 6 6 13 -2 6 2 27 9 45 8 19 9 32 3 32 -6 0 -6 8
1 20 6 12 12 48 14 80 1 33 5 63 9 66 12 12 8 292 -4 300 -8 4 -7 9 2 15 8 5
10 9 4 9 -5 0 -11 28 -12 62 -1 35 -6 64 -12 66 -5 2 -7 10 -4 18 3 8 2 22 -2
32 -5 9 -9 26 -10 37 -2 22 -11 51 -26 79 -7 12 -7 16 0 12 6 -4 0 17 -14 45
-13 29 -22 56 -19 61 3 4 1 8 -4 8 -5 0 -15 18 -22 40 -7 22 -17 40 -23 40 -5
0 -7 6 -4 14 3 8 -1 17 -9 20 -8 3 -14 15 -14 26 0 12 -4 19 -9 16 -7 -5 -15
11 -20 39 -1 3 -14 19 -31 36 -16 17 -27 36 -23 42 3 6 1 7 -5 3 -7 -4 -12 -3
-12 2 0 14 -36 52 -44 45 -3 -3 -7 -1 -7 5 -3 27 -4 31 -13 39 -6 5 -6 2 -1
-7 5 -8 -15 9 -44 38 -30 28 -58 52 -62 52 -5 0 -9 7 -9 15 0 8 -3 14 -7 14
-21 -3 -33 2 -33 16 0 14 -12 19 -32 16 -5 0 -8 4 -8 9 0 6 -9 10 -21 10 -11
0 -17 5 -14 10 3 6 -1 10 -9 10 -9 0 -16 5 -16 11 0 5 -4 7 -10 4 -5 -3 -10
-1 -10 5 0 6 -4 8 -10 5 -5 -3 -10 -1 -10 4 0 6 -9 11 -20 11 -11 0 -20 5 -20
10 0 6 -3 9 -7 9 -5 -1 -11 0 -15 1 -5 1 -14 3 -20 4 -7 1 -12 8 -10 16 3 11
0 11 -12 0 -12 -9 -16 -9 -16 -1 0 7 -4 9 -10 6 -5 -3 -10 -2 -10 3 0 5 -6 9
-12 10 -29 2 -47 9 -64 22 -13 11 -16 12 -10 1 7 -10 3 -12 -15 -6 -13 4 -26
12 -27 17 -2 5 -10 4 -18 -3 -8 -6 -14 -7 -14 -2 0 5 -8 10 -17 11 -48 7 -481
7 -477 0z m254 -266 c0 -6 29 -10 123 -15 15 -1 27 -4 27 -7 0 -3 17 -6 37 -8
20 -1 42 -7 48 -12 7 -6 24 -11 39 -12 14 -1 26 -6 26 -10 0 -4 7 -8 15 -8 8
0 15 -4 15 -8 0 -4 10 -9 22 -9 13 -1 24 -7 26 -13 2 -5 10 -10 18 -10 8 0 14
-5 14 -11 0 -5 5 -7 10 -4 6 3 13 -1 16 -9 3 -9 10 -14 14 -11 4 3 10 -2 14
-10 3 -8 11 -15 18 -15 7 0 19 -9 26 -20 7 -12 17 -18 22 -15 6 3 10 -1 10 -9
0 -9 7 -16 15 -16 8 0 15 -3 15 -7 0 -5 14 -23 30 -42 17 -18 30 -38 30 -42 0
-5 7 -9 15 -9 8 0 15 -7 15 -16 0 -9 9 -28 19 -43 11 -15 21 -34 23 -42 2 -8
7 -17 11 -20 5 -3 10 -15 11 -25 2 -10 8 -18 14 -17 6 2 9 -6 7 -17 -4 -23 19
-73 29 -63 4 4 2 -5 -3 -20 -7 -18 -7 -26 -1 -22 10 6 11 2 14 -45 0 -12 6
-24 11 -28 6 -4 11 -20 12 -37 0 -16 4 -56 7 -87 4 -39 3 -58 -4 -58 -6 0 -9
-4 -6 -9 7 -11 -64 -8 -83 3 -10 6 -12 5 -7 -2 4 -7 1 -12 -9 -12 -10 0 -13 5
-9 12 5 7 3 8 -7 2 -20 -13 -169 -12 -161 1 3 5 -2 4 -12 -4 -15 -13 -19 -13
-27 0 -5 8 -9 9 -9 3 0 -6 -16 -11 -35 -11 -22 0 -32 4 -28 11 4 6 -1 5 -10
-3 -14 -11 -17 -11 -17 0 0 9 -3 10 -8 3 -4 -5 -25 -10 -47 -10 -22 0 -43 5
-47 10 -5 8 -8 7 -8 -1 0 -13 -18 -12 -39 1 -10 6 -12 5 -7 -2 4 -7 1 -12 -9
-12 -10 0 -13 5 -9 12 5 7 3 8 -7 2 -20 -13 -169 -12 -161 1 3 5 -2 4 -12 -4
-15 -13 -19 -13 -27 0 -5 8 -9 9 -9 3 0 -14 -102 -13 -112 1 -5 7 -8 7 -8 0 0
-6 -9 -11 -20 -12 -13 -1 -18 2 -14 9 5 7 2 8 -7 2 -20 -13 -103 -13 -111 0
-5 8 -8 7 -8 -1 0 -7 -5 -13 -11 -13 -5 0 -7 5 -3 12 5 7 3 8 -7 2 -21 -13
-129 -13 -129 0 0 7 -3 7 -8 1 -11 -15 -46 -19 -36 -4 5 9 3 9 -7 3 -20 -13
-103 -13 -111 0 -5 8 -8 7 -8 -1 0 -7 -5 -13 -11 -13 -5 0 -7 5 -3 12 5 7 3 8
-7 2 -21 -13 -129 -13 -129 0 0 7 -3 7 -8 1 -11 -15 -46 -19 -36 -4 5 8 3 9
-7 3 -23 -14 -51 -16 -43 -2 5 8 2 9 -9 5 -13 -5 -15 -2 -9 16 4 12 7 37 6 55
-1 17 1 32 5 32 4 0 8 21 10 48 1 26 6 48 12 50 5 2 6 15 3 28 -4 14 -2 24 4
24 6 0 9 9 7 20 -2 11 1 20 6 20 6 0 7 5 4 10 -3 6 0 10 7 10 11 0 10 2 0 9
-11 6 -10 10 3 15 10 3 15 12 11 21 -3 8 -1 17 5 20 5 4 7 11 4 16 -4 5 -1 9
5 9 6 0 8 5 5 10 -3 6 -1 10 5 10 7 0 10 6 7 14 -3 7 3 20 14 29 10 9 19 24
19 32 0 8 5 15 11 15 5 0 7 5 4 10 -3 6 -1 10 5 10 6 0 14 8 17 18 8 21 55 67
66 64 4 -1 7 2 7 8 0 5 13 23 30 40 16 17 30 28 30 25 0 -3 11 5 23 19 13 14
27 23 30 19 4 -3 7 -1 7 6 0 7 5 9 10 6 6 -3 10 -1 10 5 0 6 4 9 9 5 6 -3 14
3 20 12 5 10 11 17 13 16 8 -6 48 10 48 19 0 5 5 6 10 3 6 -3 10 -1 10 6 0 7
3 10 6 7 3 -4 20 0 39 7 18 8 35 11 39 8 3 -4 6 -1 6 6 0 7 5 9 10 6 6 -3 10
-3 10 2 0 4 10 9 23 10 110 8 135 11 143 15 5 3 21 4 37 3 15 -1 27 2 27 7 0
4 5 8 10 8 6 0 10 -3 10 -8z m-802 -1150 c17 -2 22 1 16 10 -6 10 -4 10 9 -1
9 -7 17 -10 17 -6 0 4 8 1 17 -6 14 -12 16 -12 8 0 -6 11 -3 13 13 9 12 -4 25
-2 28 3 3 5 11 6 17 2 7 -4 23 -9 35 -11 17 -2 22 1 16 10 -5 9 -2 9 10 -1 15
-13 19 -13 27 0 7 11 9 11 9 0 0 -11 3 -11 17 0 11 10 14 10 9 2 -5 -9 0 -13
14 -13 13 0 19 4 14 12 -5 7 -3 8 7 2 8 -5 25 -10 37 -12 17 -2 22 1 16 10 -6
10 -4 10 9 -1 9 -7 17 -10 17 -6 0 4 8 1 17 -6 14 -12 16 -12 8 0 -6 11 -3 13
13 9 12 -4 25 -2 28 3 3 5 11 6 17 2 7 -4 23 -9 35 -11 17 -2 22 1 16 10 -5 9
-2 9 10 -1 15 -13 19 -13 27 0 7 11 9 11 9 0 0 -11 3 -11 17 0 11 10 14 10 9
2 -5 -9 0 -13 14 -13 13 0 19 4 14 12 -5 7 -3 8 7 2 8 -5 25 -10 37 -12 17 -2
22 1 16 10 -6 10 -4 10 9 -1 9 -7 17 -10 17 -6 0 4 8 1 17 -6 9 -8 14 -9 10
-3 -5 9 25 11 113 9 82 -2 118 0 113 8 -4 6 -1 7 8 1 8 -5 25 -10 39 -11 20
-3 22 -1 10 7 -8 5 -10 10 -4 10 6 0 14 -3 18 -7 4 -4 18 -9 32 -11 18 -2 24
1 18 9 -5 8 -3 9 7 3 8 -5 25 -10 39 -11 20 -3 22 -1 10 7 -8 5 -10 10 -4 10
6 0 14 -3 18 -7 10 -11 59 -15 52 -5 -3 5 1 9 9 9 8 0 12 -3 11 -6 -2 -3 47
-6 109 -7 72 0 112 3 108 9 -4 6 -1 7 8 1 8 -5 25 -10 39 -11 20 -3 22 -1 10
7 -8 5 -10 10 -4 10 6 0 14 -3 18 -7 4 -4 18 -9 32 -11 19 -2 24 1 18 10 -5 9
-2 9 10 -1 15 -13 19 -13 27 0 7 11 9 11 9 0 0 -11 3 -11 17 0 11 10 14 10 9
2 -4 -7 -3 -13 3 -13 10 0 8 -105 -4 -132 -4 -10 -5 -23 -3 -30 3 -7 -2 -18
-11 -25 -12 -10 -13 -12 -2 -13 10 0 11 -3 2 -13 -6 -8 -13 -24 -15 -38 -3
-13 -5 -26 -6 -29 -2 -3 -2 -8 -1 -12 0 -5 -4 -8 -10 -8 -5 0 -8 -4 -5 -9 3
-4 -3 -26 -13 -47 -11 -21 -17 -42 -14 -46 2 -5 -1 -8 -7 -8 -6 0 -8 -4 -5
-10 3 -5 1 -10 -4 -10 -6 0 -11 -5 -11 -11 0 -5 -11 -26 -25 -46 -13 -20 -21
-41 -18 -47 3 -6 3 -8 -2 -4 -11 10 -46 -32 -38 -45 3 -6 1 -7 -5 -3 -6 3 -25
-11 -43 -34 -18 -22 -38 -40 -46 -40 -7 0 -12 -6 -10 -12 1 -7 -4 -12 -10 -11
-7 2 -13 -4 -13 -12 0 -9 -6 -12 -17 -8 -9 4 -14 2 -10 -3 3 -6 -7 -18 -24
-28 -16 -9 -29 -14 -29 -9 0 4 -5 0 -11 -10 -6 -9 -14 -15 -20 -12 -5 4 -9 1
-9 -4 0 -6 -7 -11 -15 -11 -8 0 -15 -4 -15 -8 0 -4 -10 -8 -22 -9 -11 -1 -24
-6 -27 -11 -3 -5 -14 -8 -23 -6 -10 1 -18 -2 -18 -7 0 -5 -3 -8 -7 -7 -5 1
-20 -2 -34 -6 -14 -4 -33 -8 -42 -10 -9 -1 -20 -5 -23 -9 -4 -4 -14 -1 -22 6
-13 9 -14 9 -8 0 4 -7 2 -13 -3 -13 -6 0 -11 6 -11 13 0 7 -3 8 -8 2 -4 -6
-23 -10 -42 -10 -19 0 -38 -4 -42 -10 -5 -6 -8 -4 -8 5 0 13 -2 13 -9 1 -7
-10 -13 -12 -23 -5 -7 6 -43 10 -80 9 -38 -1 -68 2 -68 6 0 11 -60 16 -60 5 0
-6 -6 -4 -13 4 -12 14 -17 17 -55 23 -9 2 -31 11 -48 20 -17 9 -34 13 -38 10
-3 -4 -6 -2 -6 4 0 6 -8 13 -17 17 -41 13 -85 50 -75 62 4 5 0 3 -8 -3 -13
-10 -19 -8 -30 10 -8 12 -13 26 -12 30 1 5 -2 5 -9 2 -6 -4 -25 9 -43 29 -18
19 -36 32 -40 28 -4 -4 -6 -2 -4 3 4 14 -27 57 -35 48 -4 -3 -7 1 -7 10 0 10
-4 17 -10 17 -5 0 -7 7 -3 15 3 9 1 15 -5 13 -5 -2 -11 2 -13 7 -1 6 -9 15
-17 21 -9 6 -13 18 -9 27 3 9 1 19 -5 23 -7 5 -8 2 -3 -6 6 -9 4 -11 -4 -6 -7
5 -10 14 -7 21 2 7 -2 16 -11 19 -9 4 -13 9 -10 13 4 3 2 12 -4 20 -6 7 -8 13
-3 13 5 0 3 4 -3 8 -7 4 -14 23 -16 41 -2 18 -9 36 -14 39 -6 4 -9 19 -7 35 1
15 -1 25 -6 22 -8 -5 -18 49 -23 122 -1 24 -6 43 -11 43 -5 0 -6 3 -3 7 4 3 1
13 -5 20 -10 12 -8 14 8 11 12 -2 18 2 16 10 -2 9 2 11 10 5 7 -4 24 -9 36
-11z m1402 -606 c0 -2 -8 -10 -17 -17 -16 -13 -17 -12 -4 4 13 16 21 21 21 13z"/>
</g>
</svg>
